<svg width="1024" height="1024" viewBox="0 0 1024 1024" fill="none" xmlns="http://www.w3.org/2000/svg">
<rect width="1024" height="1024" fill="#4D34DD"/>
<g clip-path="url(#clip0_1_196)">
<path fill-rule="evenodd" clip-rule="evenodd" d="M584.649 517.796H574.659V533.528C574.659 539.684 569.634 544.724 563.47 544.724H556.899C550.747 544.724 545.71 539.684 545.71 533.528V517.796H478.002V533.528C478.002 539.684 472.965 544.724 466.813 544.724H460.242C454.09 544.724 449.053 539.684 449.053 533.528V517.796H440.539C434.698 517.712 431.904 514.58 431.472 509.072V380.672C428.235 380.996 426.616 381.752 425.824 383.444V420.152H418.725C414.324 420.152 410.702 416.528 410.702 412.112V390.428C410.702 386.096 414.192 382.52 418.509 382.4C419.18 376.088 421.891 374.276 431.7 373.796C433.055 362.792 440.515 354.656 454.174 349.4C483.399 344.036 538.862 343.472 569.85 349.4C583.497 354.668 590.957 362.804 592.3 373.808C602.133 374.312 604.844 376.148 605.515 382.4C609.82 382.532 613.31 386.096 613.31 390.428V412.112C613.31 416.528 609.688 420.152 605.275 420.152H598.188V383.336C597.396 381.68 595.777 380.96 592.528 380.66V507.824C592.528 515.192 590.165 517.808 584.649 517.796ZM538.011 704.792C531.762 709.222 524.3 711.619 516.641 711.656C509.733 711.668 502.802 709.796 496.698 705.92L496.602 705.812C477.546 693.68 459.954 680.312 444.004 666.08C427.491 651.44 412.621 635.66 399.549 619.196C381.861 597.008 367.374 573.512 356.293 549.608C344.985 525.14 337.202 500.012 333.22 475.172C329.059 449.36 328.987 424.052 333.208 400.184C337.454 376.244 345.944 353.636 358.884 333.272C364.088 325.184 370.096 317.264 376.908 309.716C383.372 302.408 390.675 295.52 398.674 289.16C416.686 274.808 436.113 263.768 456.188 256.364C476.527 248.852 497.705 245.06 518.931 245.204C540.074 245.36 560.952 249.404 580.835 257.504C600.071 265.484 618.407 276.98 635.124 292.244C641.012 297.584 646.636 303.56 651.901 309.992C657.261 316.508 662.01 323.24 666.184 330.092C679.951 352.88 688.429 378.452 691.967 405.428C695.576 432.764 694.161 461.684 688.189 490.616C679.183 534.392 660.355 576.656 634.284 613.604C608.621 649.976 575.691 681.572 538.011 704.792ZM521.774 678.224C518.824 680.384 514.818 680.672 511.544 678.572C476.143 656.024 446.367 628.94 423.018 599.552C390.771 559.064 370.444 514.172 363.501 470.936C356.425 427.1 363.033 384.944 384.835 350.648C393.433 337.088 404.406 324.74 417.789 314.096C448.561 289.544 483.71 276.608 518.68 276.86C552.402 277.1 585.668 289.7 614.413 315.944C624.523 325.124 633.025 335.66 639.969 347.084C663.413 385.712 668.462 434.984 658.137 484.928C642.067 563.168 590.429 636.524 521.774 678.224ZM771.895 745.004L727.584 614.852C725.653 609.164 722.403 603.824 716.575 603.824H691.775L708.396 570.044H716.575C730.462 570.044 740.943 575.948 748.858 585.032C754.002 590.924 757.312 597.596 759.507 604.028L819 778.796H205L258.221 604.952C260.656 597.164 264.769 589.052 271.041 582.776H271.173C278.932 575.048 288.849 570.044 301.417 570.044H317.894L335.991 603.824H301.417C295.577 603.824 292.099 609.308 290.408 614.852L250.546 745.004H771.895ZM495.918 499.604H528.082C528.945 499.604 529.665 500.312 529.665 501.176V506.576C529.665 507.44 528.945 508.148 528.082 508.148H495.918C495.055 508.148 494.347 507.44 494.347 506.576V501.176C494.347 500.312 495.055 499.604 495.918 499.604ZM579.732 499.7C580.84 499.7 581.903 500.141 582.687 500.925C583.471 501.709 583.911 502.773 583.911 503.882C583.911 504.991 583.471 506.055 582.687 506.839C581.903 507.623 580.84 508.064 579.732 508.064C577.441 508.064 575.571 506.192 575.571 503.876C575.571 502.77 576.009 501.71 576.789 500.927C577.569 500.144 578.627 499.703 579.732 499.7ZM442.134 499.7C443.242 499.7 444.305 500.141 445.089 500.925C445.872 501.709 446.313 502.773 446.313 503.882C446.313 504.991 445.872 506.055 445.089 506.839C444.305 507.623 443.242 508.064 442.134 508.064C441.025 508.064 439.962 507.623 439.178 506.839C438.395 506.055 437.954 504.991 437.954 503.882C437.954 502.773 438.395 501.709 439.178 500.925C439.962 500.141 441.025 499.7 442.134 499.7ZM587.107 485.312L586.639 474.176C586.388 472.22 585.356 471.368 583.509 471.68C574.084 476.66 565.209 482.372 556.707 488.612C554.896 489.812 555.616 492.128 558.002 491.708L583.186 489.872C585.644 489.452 586.819 487.82 587.107 485.312ZM436.257 485.312L436.725 474.176C436.977 472.22 438.008 471.368 439.855 471.68C449.269 476.66 458.143 482.372 466.658 488.612C468.468 489.812 467.737 492.128 465.35 491.708L440.167 489.872C437.72 489.452 436.545 487.82 436.257 485.312ZM490.15 355.244H533.862C535.325 355.244 536.524 356.468 536.524 357.932V364.88C536.524 366.344 535.313 367.556 533.862 367.556H490.15C488.687 367.556 487.488 366.356 487.488 364.88V357.932C487.488 356.456 488.687 355.244 490.15 355.244ZM444.196 376.364H579.204C580.991 376.364 582.466 377.828 582.466 379.64V450.908C582.466 452.684 581.015 453.692 579.204 454.172C532.902 468.248 490.498 467.66 444.196 454.172C442.373 453.68 440.934 452.684 440.934 450.908V379.628C440.922 377.828 442.409 376.364 444.196 376.364Z" fill="white"/>
</g>
<defs>
<clipPath id="clip0_1_196">
<rect width="614" height="534" fill="white" transform="translate(205 245)"/>
</clipPath>
</defs>
</svg>
