<svg width="1284" height="2778" viewBox="0 0 1284 2778" fill="none" xmlns="http://www.w3.org/2000/svg">
<g clip-path="url(#clip0_1_211)">
<path fill-rule="evenodd" clip-rule="evenodd" d="M707.931 1393.72H698.934V1407.89C698.934 1413.44 694.409 1417.98 688.857 1417.98H682.938C677.397 1417.98 672.861 1413.44 672.861 1407.89V1393.72H611.88V1407.89C611.88 1413.44 607.343 1417.98 601.803 1417.98H595.884C590.343 1417.98 585.807 1413.44 585.807 1407.89V1393.72H578.138C572.878 1393.65 570.362 1390.82 569.973 1385.86V1270.21C567.057 1270.5 565.598 1271.18 564.886 1272.7V1305.77H558.492C554.528 1305.77 551.266 1302.5 551.266 1298.53V1278.99C551.266 1275.09 554.409 1271.87 558.297 1271.76C558.902 1266.08 561.343 1264.45 570.178 1264.01C571.398 1254.1 578.117 1246.77 590.419 1242.04C616.74 1237.21 666.694 1236.7 694.603 1242.04C706.894 1246.78 713.612 1254.11 714.822 1264.02C723.679 1264.48 726.12 1266.13 726.725 1271.76C730.602 1271.88 733.745 1275.09 733.745 1278.99V1298.53C733.745 1302.5 730.483 1305.77 726.508 1305.77H720.125V1272.61C719.412 1271.11 717.954 1270.47 715.027 1270.2V1384.74C715.027 1391.38 712.899 1393.73 707.931 1393.72ZM665.927 1562.16C660.298 1566.15 653.578 1568.31 646.68 1568.34C640.459 1568.35 634.216 1566.66 628.718 1563.17L628.632 1563.08C611.469 1552.15 595.625 1540.11 581.26 1527.29C566.387 1514.1 552.994 1499.89 541.221 1485.06C525.29 1465.07 512.243 1443.91 502.263 1422.38C492.078 1400.34 485.068 1377.7 481.482 1355.33C477.734 1332.08 477.669 1309.28 481.471 1287.78C485.295 1266.22 492.942 1245.85 504.596 1227.51C509.283 1220.23 514.694 1213.09 520.829 1206.29C526.651 1199.71 533.228 1193.51 540.433 1187.78C556.655 1174.85 574.153 1164.91 592.233 1158.24C610.551 1151.47 629.625 1148.05 648.743 1148.18C667.785 1148.32 686.589 1151.97 704.496 1159.26C721.821 1166.45 738.335 1176.81 753.392 1190.55C758.695 1195.36 763.76 1200.75 768.502 1206.54C773.33 1212.41 777.607 1218.47 781.366 1224.65C793.765 1245.17 801.401 1268.21 804.587 1292.51C807.838 1317.13 806.564 1343.18 801.185 1369.24C793.074 1408.67 776.116 1446.74 752.636 1480.02C729.522 1512.78 699.863 1541.24 665.927 1562.16ZM651.303 1538.23C648.646 1540.17 645.038 1540.43 642.09 1538.54C610.206 1518.23 583.387 1493.83 562.358 1467.36C533.315 1430.89 515.008 1390.46 508.754 1351.51C502.381 1312.03 508.333 1274.05 527.969 1243.16C535.713 1230.95 545.595 1219.83 557.649 1210.24C585.364 1188.12 617.021 1176.47 648.516 1176.7C678.888 1176.91 708.849 1188.26 734.739 1211.9C743.844 1220.17 751.501 1229.66 757.755 1239.95C778.871 1274.75 783.418 1319.13 774.118 1364.11C759.645 1434.59 713.137 1500.66 651.303 1538.23ZM876.575 1598.38L836.666 1481.14C834.927 1476.02 832 1471.21 826.751 1471.21H804.415L819.384 1440.78H826.751C839.258 1440.78 848.698 1446.1 855.826 1454.28C860.46 1459.59 863.441 1465.6 865.417 1471.39L919 1628.82H366L413.934 1472.23C416.126 1465.21 419.831 1457.9 425.48 1452.25H425.599C432.587 1445.29 441.519 1440.78 452.838 1440.78H467.679L483.977 1471.21H452.838C447.578 1471.21 444.446 1476.15 442.923 1481.14L407.021 1598.38H876.575ZM628.016 1377.33H656.984C657.762 1377.33 658.41 1377.97 658.41 1378.75V1383.61C658.41 1384.39 657.762 1385.03 656.984 1385.03H628.016C627.238 1385.03 626.601 1384.39 626.601 1383.61V1378.75C626.601 1377.97 627.238 1377.33 628.016 1377.33ZM703.503 1377.42C704.501 1377.42 705.459 1377.82 706.164 1378.52C706.87 1379.23 707.267 1380.19 707.267 1381.19C707.267 1382.19 706.87 1383.14 706.164 1383.85C705.459 1384.56 704.501 1384.95 703.503 1384.95C701.44 1384.95 699.755 1383.27 699.755 1381.18C699.755 1380.19 700.149 1379.23 700.852 1378.53C701.555 1377.82 702.508 1377.42 703.503 1377.42ZM579.575 1377.42C580.573 1377.42 581.53 1377.82 582.236 1378.52C582.942 1379.23 583.339 1380.19 583.339 1381.19C583.339 1382.19 582.942 1383.14 582.236 1383.85C581.53 1384.56 580.573 1384.95 579.575 1384.95C578.576 1384.95 577.619 1384.56 576.913 1383.85C576.207 1383.14 575.811 1382.19 575.811 1381.19C575.811 1380.19 576.207 1379.23 576.913 1378.52C577.619 1377.82 578.576 1377.42 579.575 1377.42ZM710.145 1364.46L709.724 1354.43C709.497 1352.67 708.568 1351.9 706.905 1352.18C698.416 1356.67 690.423 1361.81 682.765 1367.43C681.134 1368.51 681.782 1370.6 683.932 1370.22L706.613 1368.57C708.828 1368.19 709.886 1366.72 710.145 1364.46ZM574.282 1364.46L574.703 1354.43C574.93 1352.67 575.859 1351.9 577.522 1352.18C586.001 1356.67 593.994 1361.81 601.662 1367.43C603.293 1368.51 602.634 1370.6 600.485 1370.22L577.803 1368.57C575.6 1368.19 574.541 1366.72 574.282 1364.46ZM622.821 1247.3H662.19C663.508 1247.3 664.588 1248.4 664.588 1249.72V1255.98C664.588 1257.3 663.497 1258.39 662.19 1258.39H622.821C621.503 1258.39 620.423 1257.31 620.423 1255.98V1249.72C620.423 1248.39 621.503 1247.3 622.821 1247.3ZM581.432 1266.33H703.028C704.637 1266.33 705.965 1267.64 705.965 1269.28V1333.47C705.965 1335.07 704.659 1335.98 703.028 1336.41C661.326 1349.09 623.134 1348.56 581.432 1336.41C579.791 1335.97 578.495 1335.07 578.495 1333.47V1269.27C578.484 1267.64 579.823 1266.33 581.432 1266.33Z" fill="#4D34DD"/>
</g>
<defs>
<clipPath id="clip0_1_211">
<rect width="553" height="481" fill="white" transform="translate(366 1148)"/>
</clipPath>
</defs>
</svg>
