<?xml version="1.0" encoding="utf-8"?><!-- Uploaded to: SVG Repo, www.svgrepo.com, Generator: SVG Repo Mixer Tools -->
<svg width="800px" height="800px" viewBox="0 0 36 36" xmlns="http://www.w3.org/2000/svg" xmlns:xlink="http://www.w3.org/1999/xlink" aria-hidden="true" role="img" class="iconify iconify--twemoji" preserveAspectRatio="xMidYMid meet"><path fill="#6D6E71" d="M14 7h2v29h-2z"></path><path fill="#6D6E71" d="M15 19h3v2h-3zm0-6h3v2h-3z"></path><path fill="#BCBEC0" d="M29 24a1 1 0 0 1-1 1h-9a1 1 0 0 1-1-1V10a1 1 0 0 1 1-1h9a1 1 0 0 1 1 1v14z"></path><path fill="#BE1931" d="M29 13v-3a1 1 0 0 0-1-1h-9a1 1 0 0 0-1 1v3h11z"></path><path fill="#6D6E71" d="M21 34H9l-1 1v1h14v-1zm-2-2h-8l-1 1v1h10v-1z"></path><circle fill="#BE1931" cx="15" cy="4" r="4"></circle><path fill="#808285" d="M20 13h3v3h-3z"></path><path fill="#F4900C" d="M20 17h3v3h-3zm0 4h3v3h-3z"></path><path fill="#808285" d="M24 13h3v3h-3zm0 4h3v3h-3z"></path><path fill="#F4900C" d="M24 21h3v3h-3z"></path><path fill="#DD2E44" d="M13 2h4v4h-4zm7 8h7v2h-7z"></path></svg>