<?xml version="1.0" encoding="utf-8"?>
<!-- Uploaded to: SVG Repo, www.svgrepo.com, Generator: SVG Repo Mixer Tools -->
<svg width="800px" height="800px" viewBox="0 0 1024 1024" class="icon"  version="1.1" xmlns="http://www.w3.org/2000/svg"><path d="M341.333333 768a21.333333 21.333333 0 0 0-21.333333-21.333333h-85.333333a21.333333 21.333333 0 0 0-21.333334 21.333333v128a21.333333 21.333333 0 0 0 21.333334 21.333333h85.333333a21.333333 21.333333 0 0 0 21.333333-21.333333v-128zM810.666667 768a21.333333 21.333333 0 0 0-21.333334-21.333333h-85.333333a21.333333 21.333333 0 0 0-21.333333 21.333333v128a21.333333 21.333333 0 0 0 21.333333 21.333333h85.333333a21.333333 21.333333 0 0 0 21.333334-21.333333v-128z" fill="#455A64" /><path d="M800 85.333333h-576A53.333333 53.333333 0 0 0 170.666667 138.666667V789.333333s0 42.666667 42.666666 42.666667h597.333334c42.666667 0 42.666667-42.666667 42.666666-42.666667V138.666667A53.333333 53.333333 0 0 0 800 85.333333z" fill="#FFC107" /><path d="M213.333333 479.978667a32 32 0 0 1-32 32h-21.333333a32 32 0 0 1-32-32V416A32 32 0 0 1 160 384h21.333333a32 32 0 0 1 32 32v63.978667zM896 479.978667a32 32 0 0 1-32 32h-21.333333a32 32 0 0 1-32-32V416a32 32 0 0 1 32-32h21.333333a32 32 0 0 1 32 32v63.978667z" fill="#FFC107" /><path d="M288 693.333333m-53.333333 0a53.333333 53.333333 0 1 0 106.666666 0 53.333333 53.333333 0 1 0-106.666666 0Z" fill="#FFF8E1" /><path d="M736 693.333333m-53.333333 0a53.333333 53.333333 0 1 0 106.666666 0 53.333333 53.333333 0 1 0-106.666666 0Z" fill="#FFF8E1" /><path d="M778.666667 128h-533.333334A32 32 0 0 0 213.333333 160v341.333333a53.333333 53.333333 0 0 0 53.333334 53.333334h490.666666a53.333333 53.333333 0 0 0 53.333334-53.333334v-341.333333A32 32 0 0 0 778.666667 128z" fill="#9FA8DA" /><path d="M810.666667 256H213.333333V160A32 32 0 0 1 245.333333 128h533.333334A32 32 0 0 1 810.666667 160V256z" fill="#263238" /><path d="M256 170.666667h234.666667v42.666666H256zM533.333333 170.666667h85.333334v42.666666h-85.333334z" fill="#64DD17" /><path d="M448 554.666667h-170.666667v-160a32 32 0 0 1 32-32h106.666667a32 32 0 0 1 32 32V554.666667zM746.666667 554.666667h-170.666667v-160a32 32 0 0 1 32-32h106.666667a32 32 0 0 1 32 32V554.666667z" fill="#7986CB" /><path d="M606.506667 554.666667c-5.674667-6.336-9.173333-13.589333-9.173334-21.333334 0-23.125333 29.312-42.666667 64-42.666666s64 19.541333 64 42.666666c0 7.744-3.498667 14.997333-9.173333 21.333334h48.042667c2.24-6.848 3.797333-13.909333 3.797333-21.333334 0-47.061333-47.850667-85.333333-106.666667-85.333333s-106.666667 38.272-106.666666 85.333333c0 7.424 1.557333 14.485333 3.797333 21.333334h48.042667z" fill="#3949AB" /></svg>