<svg width="1024" height="1024" viewBox="0 0 1024 1024" fill="none" xmlns="http://www.w3.org/2000/svg">
<g clip-path="url(#clip0_1_228)">
<path fill-rule="evenodd" clip-rule="evenodd" d="M572.58 516.33H564.25V529.44C564.25 534.57 560.06 538.77 554.92 538.77H549.44C544.31 538.77 540.11 534.57 540.11 529.44V516.33H483.65V529.44C483.65 534.57 479.45 538.77 474.32 538.77H468.84C463.71 538.77 459.51 534.57 459.51 529.44V516.33H452.41C447.54 516.26 445.21 513.65 444.85 509.06V402.06C442.15 402.33 440.8 402.96 440.14 404.37V434.96H434.22C430.55 434.96 427.53 431.94 427.53 428.26V410.19C427.53 406.58 430.44 403.6 434.04 403.5C434.6 398.24 436.86 396.73 445.04 396.33C446.17 387.16 452.39 380.38 463.78 376C488.15 371.53 534.4 371.06 560.24 376C571.62 380.39 577.84 387.17 578.96 396.34C587.16 396.76 589.42 398.29 589.98 403.5C593.57 403.61 596.48 406.58 596.48 410.19V428.26C596.48 431.94 593.46 434.96 589.78 434.96H583.87V404.28C583.21 402.9 581.86 402.3 579.15 402.05V508.02C579.15 514.16 577.18 516.34 572.58 516.33ZM533.69 672.16C528.479 675.852 522.257 677.849 515.87 677.88C510.11 677.89 504.33 676.33 499.24 673.1L499.16 673.01C483.27 662.9 468.6 651.76 455.3 639.9C441.53 627.7 429.13 614.55 418.23 600.83C403.48 582.34 391.4 562.76 382.16 542.84C372.73 522.45 366.24 501.51 362.92 480.81C359.45 459.3 359.39 438.21 362.91 418.32C366.45 398.37 373.53 379.53 384.32 362.56C388.66 355.82 393.67 349.22 399.35 342.93C404.74 336.84 410.83 331.1 417.5 325.8C432.52 313.84 448.72 304.64 465.46 298.47C482.42 292.21 500.08 289.05 517.78 289.17C535.41 289.3 552.82 292.67 569.4 299.42C585.44 306.07 600.73 315.65 614.67 328.37C619.58 332.82 624.27 337.8 628.66 343.16C633.13 348.59 637.09 354.2 640.57 359.91C652.05 378.9 659.12 400.21 662.07 422.69C665.08 445.47 663.9 469.57 658.92 493.68C651.41 530.16 635.71 565.38 613.97 596.17C592.57 626.48 565.11 652.81 533.69 672.16ZM520.15 650.02C517.69 651.82 514.35 652.06 511.62 650.31C482.1 631.52 457.27 608.95 437.8 584.46C410.91 550.72 393.96 513.31 388.17 477.28C382.27 440.75 387.78 405.62 405.96 377.04C413.13 365.74 422.28 355.45 433.44 346.58C459.1 326.12 488.41 315.34 517.57 315.55C545.69 315.75 573.43 326.25 597.4 348.12C605.83 355.77 612.92 364.55 618.71 374.07C638.26 406.26 642.47 447.32 633.86 488.94C620.46 554.14 577.4 615.27 520.15 650.02ZM728.72 705.67L691.77 597.21C690.16 592.47 687.45 588.02 682.59 588.02H661.91L675.77 559.87H682.59C694.17 559.87 702.91 564.79 709.51 572.36C713.8 577.27 716.56 582.83 718.39 588.19L768 733.83H256L300.38 588.96C302.41 582.47 305.84 575.71 311.07 570.48H311.18C317.65 564.04 325.92 559.87 336.4 559.87H350.14L365.23 588.02H336.4C331.53 588.02 328.63 592.59 327.22 597.21L293.98 705.67H728.72ZM498.59 501.17H525.41C526.13 501.17 526.73 501.76 526.73 502.48V506.98C526.73 507.7 526.13 508.29 525.41 508.29H498.59C497.87 508.29 497.28 507.7 497.28 506.98V502.48C497.28 501.76 497.87 501.17 498.59 501.17ZM568.48 501.25C569.404 501.25 570.291 501.617 570.944 502.271C571.598 502.924 571.965 503.811 571.965 504.735C571.965 505.659 571.598 506.546 570.944 507.199C570.291 507.853 569.404 508.22 568.48 508.22C566.57 508.22 565.01 506.66 565.01 504.73C565.01 503.809 565.375 502.925 566.026 502.273C566.676 501.62 567.559 501.253 568.48 501.25ZM453.74 501.25C454.664 501.25 455.551 501.617 456.204 502.271C456.858 502.924 457.225 503.811 457.225 504.735C457.225 505.659 456.858 506.546 456.204 507.199C455.551 507.853 454.664 508.22 453.74 508.22C452.816 508.22 451.929 507.853 451.276 507.199C450.622 506.546 450.255 505.659 450.255 504.735C450.255 503.811 450.622 502.924 451.276 502.271C451.929 501.617 452.816 501.25 453.74 501.25ZM574.63 489.26L574.24 479.98C574.03 478.35 573.17 477.64 571.63 477.9C563.77 482.05 556.37 486.81 549.28 492.01C547.77 493.01 548.37 494.94 550.36 494.59L571.36 493.06C573.41 492.71 574.39 491.35 574.63 489.26ZM448.84 489.26L449.23 479.98C449.44 478.35 450.3 477.64 451.84 477.9C459.69 482.05 467.09 486.81 474.19 492.01C475.7 493.01 475.09 494.94 473.1 494.59L452.1 493.06C450.06 492.71 449.08 491.35 448.84 489.26ZM493.78 380.87H530.23C531.45 380.87 532.45 381.89 532.45 383.11V388.9C532.45 390.12 531.44 391.13 530.23 391.13H493.78C492.56 391.13 491.56 390.13 491.56 388.9V383.11C491.56 381.88 492.56 380.87 493.78 380.87ZM455.46 398.47H568.04C569.53 398.47 570.76 399.69 570.76 401.2V460.59C570.76 462.07 569.55 462.91 568.04 463.31C529.43 475.04 494.07 474.55 455.46 463.31C453.94 462.9 452.74 462.07 452.74 460.59V401.19C452.73 399.69 453.97 398.47 455.46 398.47Z" fill="#4D34DD"/>
</g>
<defs>
<clipPath id="clip0_1_228">
<rect width="512" height="445" fill="white" transform="translate(256 289)"/>
</clipPath>
</defs>
</svg>
